<?xml version="1.0" encoding="UTF-8" standalone="no"?>
<!DOCTYPE svg PUBLIC "-//W3C//DTD SVG 1.1//EN"
 "http://www.w3.org/Graphics/SVG/1.1/DTD/svg11.dtd">
<!-- Generated by graphviz version 2.46.0 (20210118.1747)
 -->
<!-- Title: G Pages: 1 -->
<svg width="526pt" height="260pt"
 viewBox="0.00 0.00 526.17 260.00" xmlns="http://www.w3.org/2000/svg" xmlns:xlink="http://www.w3.org/1999/xlink">
<g id="graph0" class="graph" transform="scale(1 1) rotate(0) translate(4 256)">
<title>G</title><style>.edge>path:hover{stroke-width:8}</style>
<polygon fill="white" stroke="transparent" points="-4,4 -4,-256 522.17,-256 522.17,4 -4,4"/>
<!-- PatsPedsClaims -->
<g id="node1" class="node">
<title>PatsPedsClaims</title><style>.edge>path:hover{stroke-width:8}</style>
<ellipse fill="#c24747" stroke="black" cx="125.17" cy="-162" rx="52.96" ry="18"/>
<text text-anchor="middle" x="125.17" y="-159.5" font-family="Helvetica,sans-Serif" font-size="10.00" fill="#ffffff">PatsPedsClaims</text>
</g>
<!-- PatsPedsClaimsWrapper -->
<g id="node2" class="node">
<title>PatsPedsClaimsWrapper</title><style>.edge>path:hover{stroke-width:8}</style>
<ellipse fill="#b3a44c" stroke="black" cx="74.17" cy="-90" rx="74.34" ry="18"/>
<text text-anchor="middle" x="74.17" y="-87.5" font-family="Helvetica,sans-Serif" font-size="10.00" fill="#000000">PatsPedsClaimsWrapper</text>
</g>
<!-- PatsPedsClaims&#45;&gt;PatsPedsClaimsWrapper -->
<g id="edge1" class="edge">
<title>PatsPedsClaims&#45;&gt;PatsPedsClaimsWrapper</title><style>.edge>path:hover{stroke-width:8}</style>
<path fill="none" stroke="black" d="M113.09,-144.41C106.95,-135.99 99.37,-125.58 92.53,-116.2"/>
<polygon fill="#c24747" stroke="black" points="95.24,-113.98 86.53,-107.96 89.59,-118.1 95.24,-113.98"/>
</g>
<!-- PatsPedsGUI -->
<g id="node4" class="node">
<title>PatsPedsGUI</title><style>.edge>path:hover{stroke-width:8}</style>
<ellipse fill="#439d77" stroke="black" cx="222.17" cy="-18" rx="45.15" ry="18"/>
<text text-anchor="middle" x="222.17" y="-15.5" font-family="Helvetica,sans-Serif" font-size="10.00" fill="#ffffff">PatsPedsGUI</text>
</g>
<!-- PatsPedsClaims&#45;&gt;PatsPedsGUI -->
<g id="edge2" class="edge">
<title>PatsPedsClaims&#45;&gt;PatsPedsGUI</title><style>.edge>path:hover{stroke-width:8}</style>
<path fill="none" stroke="black" d="M136.68,-144.15C153.6,-119.39 185.3,-72.97 204.99,-44.16"/>
<polygon fill="#c24747" stroke="black" points="207.93,-46.06 210.68,-35.82 202.15,-42.11 207.93,-46.06"/>
</g>
<!-- PatsPedsClaimsWrapper&#45;&gt;PatsPedsGUI -->
<g id="edge3" class="edge">
<title>PatsPedsClaimsWrapper&#45;&gt;PatsPedsGUI</title><style>.edge>path:hover{stroke-width:8}</style>
<path fill="none" stroke="black" d="M106.65,-73.64C129.79,-62.7 160.93,-47.97 185.05,-36.56"/>
<polygon fill="#b3a44c" stroke="black" points="186.71,-39.65 194.25,-32.21 183.71,-33.32 186.71,-39.65"/>
</g>
<!-- PatsPedsFileWrapper -->
<g id="node3" class="node">
<title>PatsPedsFileWrapper</title><style>.edge>path:hover{stroke-width:8}</style>
<ellipse fill="#70b653" stroke="black" cx="269.17" cy="-90" rx="65.18" ry="18"/>
<text text-anchor="middle" x="269.17" y="-87.5" font-family="Helvetica,sans-Serif" font-size="10.00" fill="#000000">PatsPedsFileWrapper</text>
</g>
<!-- PatsPedsFileWrapper&#45;&gt;PatsPedsGUI -->
<g id="edge4" class="edge">
<title>PatsPedsFileWrapper&#45;&gt;PatsPedsGUI</title><style>.edge>path:hover{stroke-width:8}</style>
<path fill="none" stroke="black" d="M257.79,-72.05C252.19,-63.71 245.33,-53.49 239.13,-44.25"/>
<polygon fill="#70b653" stroke="black" points="241.92,-42.14 233.44,-35.79 236.11,-46.04 241.92,-42.14"/>
</g>
<!-- PatsPedsListProcessorTerm -->
<g id="node5" class="node">
<title>PatsPedsListProcessorTerm</title><style>.edge>path:hover{stroke-width:8}</style>
<ellipse fill="#4c87b3" stroke="black" cx="435.17" cy="-90" rx="83" ry="18"/>
<text text-anchor="middle" x="435.17" y="-87.5" font-family="Helvetica,sans-Serif" font-size="10.00" fill="#ffffff">PatsPedsListProcessorTerm</text>
</g>
<!-- PatsPedsListProcessorTerm&#45;&gt;PatsPedsGUI -->
<g id="edge5" class="edge">
<title>PatsPedsListProcessorTerm&#45;&gt;PatsPedsGUI</title><style>.edge>path:hover{stroke-width:8}</style>
<path fill="none" stroke="black" d="M391.55,-74.67C354.84,-62.6 302.6,-45.43 265.86,-33.36"/>
<polygon fill="#4c87b3" stroke="black" points="266.53,-29.89 255.94,-30.1 264.35,-36.54 266.53,-29.89"/>
</g>
<!-- PatsPedsMultiTerm -->
<g id="node6" class="node">
<title>PatsPedsMultiTerm</title><style>.edge>path:hover{stroke-width:8}</style>
<ellipse fill="#6a4cb3" stroke="black" cx="435.17" cy="-162" rx="60.09" ry="18"/>
<text text-anchor="middle" x="435.17" y="-159.5" font-family="Helvetica,sans-Serif" font-size="10.00" fill="#ffffff">PatsPedsMultiTerm</text>
</g>
<!-- PatsPedsMultiTerm&#45;&gt;PatsPedsListProcessorTerm -->
<g id="edge6" class="edge">
<title>PatsPedsMultiTerm&#45;&gt;PatsPedsListProcessorTerm</title><style>.edge>path:hover{stroke-width:8}</style>
<path fill="none" stroke="black" d="M435.17,-143.7C435.17,-135.98 435.17,-126.71 435.17,-118.11"/>
<polygon fill="#6a4cb3" stroke="black" points="438.67,-118.1 435.17,-108.1 431.67,-118.1 438.67,-118.1"/>
</g>
<!-- PatsPedsTermDisc -->
<g id="node7" class="node">
<title>PatsPedsTermDisc</title><style>.edge>path:hover{stroke-width:8}</style>
<ellipse fill="#b653a8" stroke="black" cx="435.17" cy="-234" rx="59.41" ry="18"/>
<text text-anchor="middle" x="435.17" y="-231.5" font-family="Helvetica,sans-Serif" font-size="10.00" fill="#ffffff">PatsPedsTermDisc</text>
</g>
<!-- PatsPedsTermDisc&#45;&gt;PatsPedsMultiTerm -->
<g id="edge7" class="edge">
<title>PatsPedsTermDisc&#45;&gt;PatsPedsMultiTerm</title><style>.edge>path:hover{stroke-width:8}</style>
<path fill="none" stroke="black" d="M435.17,-215.7C435.17,-207.98 435.17,-198.71 435.17,-190.11"/>
<polygon fill="#b653a8" stroke="black" points="438.67,-190.1 435.17,-180.1 431.67,-190.1 438.67,-190.1"/>
</g>
</g>
</svg>
